<svg width="113" height="26" viewBox="0 0 113 26" fill="none" xmlns="http://www.w3.org/2000/svg">
<path d="M26.3719 8.48382V2.41357C22.4751 2.41357 18.6757 3.72474 15.948 6.00716L15.2173 6.58991L14.4867 6.00716C11.7102 3.72474 7.9596 2.41357 4.06282 2.41357V8.48382C4.06282 10.1349 4.64734 11.6889 5.62154 13.0001C4.64734 14.3113 4.06282 15.8652 4.06282 17.5164V23.5866C7.9596 23.5866 11.759 22.2754 14.4867 19.993L15.2173 19.4103C13.3177 18.2933 12.1486 16.3023 12.1486 14.0684V11.9317C12.1486 9.74644 13.3177 7.70683 15.2173 6.58991C17.117 7.70683 18.2861 9.74644 18.2861 11.9317V14.0684C18.2861 16.2537 17.117 18.2933 15.2173 19.4103L15.948 19.993C18.7244 22.2754 22.4751 23.5866 26.3719 23.5866V17.5164C26.3719 15.8652 25.7874 14.3113 24.8132 13.0001C25.7874 11.6889 26.3719 10.1349 26.3719 8.48382Z" fill="#FF4F00"/>
<path d="M40.9939 21.7441C39.3477 21.7441 37.9093 21.37 36.6788 20.6217C35.4482 19.8734 34.4921 18.8341 33.8103 17.5038C33.1285 16.1569 32.7877 14.5938 32.7877 12.8145C32.7877 11.0186 33.1369 9.43888 33.8353 8.07533C34.5503 6.69515 35.5563 5.62259 36.8534 4.85767C38.167 4.07612 39.7218 3.68535 41.5177 3.68535C43.5631 3.68535 45.2592 4.17589 46.6061 5.15699C47.9531 6.13808 48.8261 7.49332 49.2251 9.22271H45.6583C45.3922 8.4079 44.91 7.77601 44.2116 7.32704C43.5132 6.86143 42.6152 6.62863 41.5177 6.62863C39.7717 6.62863 38.4248 7.18569 37.477 8.29982C36.5291 9.39731 36.0552 10.9105 36.0552 12.8395C36.0552 14.7684 36.5208 16.265 37.452 17.3292C38.3998 18.3768 39.6803 18.9006 41.2932 18.9006C42.873 18.9006 44.0619 18.4766 44.8601 17.6285C45.6749 16.7638 46.1655 15.6331 46.3317 14.2363H41.9168V11.8417H49.5494V21.4448H46.6061L46.3567 19.1501C45.7913 19.9815 45.0846 20.6217 44.2365 21.0707C43.3885 21.5197 42.3076 21.7441 40.9939 21.7441ZM57.8439 21.7441C56.5967 21.7441 55.4909 21.4781 54.5265 20.946C53.562 20.4138 52.8054 19.6656 52.2566 18.7011C51.7079 17.7366 51.4335 16.6225 51.4335 15.3587C51.4335 14.0783 51.6996 12.9392 52.2317 11.9415C52.7804 10.9438 53.5287 10.1705 54.4766 9.6218C55.441 9.05642 56.5718 8.77374 57.8688 8.77374C59.0827 8.77374 60.1553 9.0398 61.0865 9.57191C62.0177 10.104 62.7411 10.8357 63.2565 11.7669C63.7887 12.6815 64.0547 13.7042 64.0547 14.8349C64.0547 15.0178 64.0464 15.2091 64.0298 15.4086C64.0298 15.6081 64.0215 15.816 64.0048 16.0322H54.6013C54.6678 16.9966 55.0004 17.7532 55.599 18.302C56.2143 18.8507 56.9543 19.1251 57.819 19.1251C58.4675 19.1251 59.0079 18.9838 59.4403 18.7011C59.8892 18.4018 60.2218 18.0193 60.438 17.5537H63.6806C63.4478 18.3353 63.057 19.0503 62.5083 19.6988C61.9761 20.3307 61.311 20.8296 60.5128 21.1954C59.7313 21.5612 58.8416 21.7441 57.8439 21.7441ZM57.8688 11.3678C57.0873 11.3678 56.3972 11.5923 55.7986 12.0413C55.1999 12.4736 54.8175 13.1388 54.6512 14.0367H60.8121C60.7622 13.2219 60.4629 12.5734 59.9142 12.0912C59.3654 11.6089 58.6836 11.3678 57.8688 11.3678ZM65.9942 21.4448V9.07305H68.8128L69.0622 11.1683C69.4446 10.4366 69.9934 9.8546 70.7084 9.42226C71.4401 8.98991 72.2965 8.77374 73.2776 8.77374C74.8074 8.77374 75.9964 9.25597 76.8444 10.2204C77.6925 11.1849 78.1165 12.5983 78.1165 14.4608V21.4448H74.9238V14.7601C74.9238 13.6958 74.7076 12.881 74.2753 12.3157C73.8429 11.7503 73.1695 11.4676 72.2549 11.4676C71.3569 11.4676 70.617 11.7835 70.035 12.4154C69.4696 13.0473 69.1869 13.9286 69.1869 15.0594V21.4448H65.9942ZM79.3761 21.4448L85.7615 3.98466H89.3533L95.7388 21.4448H92.3465L90.9497 17.404H84.1402L82.7185 21.4448H79.3761ZM85.0132 14.9097H90.0767L87.5325 7.6513L85.0132 14.9097ZM97.2421 21.4448V3.98466H100.435V21.4448H97.2421Z" fill="#1C1C1C"/>
</svg>
